<svg width="22" height="22" viewBox="0 0 22 22" fill="none" xmlns="http://www.w3.org/2000/svg">
  <path d="M3.90503 10.1017V14.6576C3.90503 16.3259 3.90503 16.3259 5.4817 17.3892L9.81753 19.8917C10.4684 20.2676 11.5317 20.2676 12.1825 19.8917L16.5184 17.3892C18.095 16.3259 18.095 16.3259 18.095 14.6576V10.1017C18.095 8.4334 18.095 8.4334 16.5184 7.37007L12.1825 4.86757C11.5317 4.49174 10.4684 4.49174 9.81753 4.86757L5.4817 7.37007C3.90503 8.4334 3.90503 8.4334 3.90503 10.1017Z" stroke="#7C7C7C" stroke-linecap="round" stroke-linejoin="round"/>
  <path d="M16.0417 6.99409V4.58325C16.0417 2.74992 15.125 1.83325 13.2917 1.83325H8.70837C6.87504 1.83325 5.95837 2.74992 5.95837 4.58325V6.92992" stroke="#7C7C7C" stroke-linecap="round" stroke-linejoin="round"/>
  <path d="M11.5775 10.0741L12.1 10.89C12.1825 11.0183 12.3658 11.1466 12.5033 11.1833L13.4383 11.4216C14.0158 11.5683 14.1717 12.0633 13.7958 12.5216L13.1817 13.2641C13.09 13.3833 13.0167 13.5941 13.0258 13.7408L13.0808 14.7033C13.1175 15.2991 12.6958 15.6016 12.1458 15.3816L11.2475 15.0241C11.11 14.9691 10.8808 14.9691 10.7433 15.0241L9.845 15.3816C9.295 15.6016 8.87334 15.29 8.91 14.7033L8.965 13.7408C8.97417 13.5941 8.90084 13.3741 8.80917 13.2641L8.195 12.5216C7.81917 12.0633 7.975 11.5683 8.5525 11.4216L9.4875 11.1833C9.63417 11.1466 9.8175 11.0091 9.89084 10.89L10.4133 10.0741C10.7433 9.57913 11.2567 9.57913 11.5775 10.0741Z" stroke="#7C7C7C" stroke-linecap="round" stroke-linejoin="round"/>
</svg>
