<svg width="18" height="16" viewBox="0 0 18 16" fill="none" xmlns="http://www.w3.org/2000/svg">
  <path d="M15.7663 2.25621C15.3753 1.86508 14.9111 1.5548 14.4002 1.34311C13.8893 1.13142 13.3417 1.02246 12.7887 1.02246C12.2357 1.02246 11.6881 1.13142 11.1772 1.34311C10.6663 1.5548 10.2021 1.86508 9.81116 2.25621L8.9998 3.06757L8.18843 2.25621C7.39874 1.46652 6.32768 1.02287 5.21089 1.02287C4.09409 1.02287 3.02303 1.46652 2.23334 2.25621C1.44365 3.0459 1 4.11696 1 5.23376C1 6.35055 1.44365 7.42161 2.23334 8.2113L3.0447 9.02267L8.9998 14.9778L14.9549 9.02267L15.7663 8.2113C16.1574 7.82035 16.4677 7.35617 16.6794 6.84527C16.891 6.33437 17 5.78677 17 5.23376C17 4.68074 16.891 4.13314 16.6794 3.62224C16.4677 3.11134 16.1574 2.64716 15.7663 2.25621Z" stroke="#7C7C7C" stroke-linecap="round" stroke-linejoin="round"/>
</svg>
