<svg width="19" height="19" viewBox="0 0 19 19" fill="none" xmlns="http://www.w3.org/2000/svg">
  <path d="M12.2304 12.2263L9.50339 9.49927L6.77637 12.2263" stroke="white" stroke-linecap="round" stroke-linejoin="round"/>
  <path d="M9.50293 9.49927V15.6351" stroke="white" stroke-linecap="round" stroke-linejoin="round"/>
  <path d="M15.2229 13.8558C15.8878 13.4933 16.4131 12.9196 16.7158 12.2254C17.0186 11.5312 17.0815 10.756 16.8947 10.0221C16.7079 9.28811 16.282 8.63728 15.6842 8.17228C15.0864 7.70728 14.3508 7.45459 13.5935 7.45409H12.7345C12.5281 6.65592 12.1435 5.91492 11.6095 5.28679C11.0756 4.65866 10.4062 4.15975 9.65163 3.82757C8.8971 3.49539 8.07708 3.33858 7.25323 3.36893C6.42937 3.39929 5.62312 3.61601 4.89508 4.00282C4.16704 4.38962 3.53616 4.93644 3.04987 5.60216C2.56358 6.26788 2.23454 7.03518 2.08748 7.84637C1.94042 8.65756 1.97916 9.49154 2.20081 10.2856C2.42245 11.0797 2.82122 11.8131 3.36715 12.4309" stroke="white" stroke-linecap="round" stroke-linejoin="round"/>
  <path d="M12.2304 12.2263L9.50339 9.49927L6.77637 12.2263" stroke="white" stroke-linecap="round" stroke-linejoin="round"/>
</svg>
