<svg width="18" height="18" viewBox="0 0 18 18" fill="none" xmlns="http://www.w3.org/2000/svg">
  <path d="M11.25 16.5H8.04546C5.59955 16.5 4.3766 16.5 3.5273 15.9016C3.28397 15.7302 3.06794 15.5269 2.88578 15.2978C2.25 14.4985 2.25 13.3475 2.25 11.0455V9.13636C2.25 6.91398 2.25 5.8028 2.6017 4.91531C3.16711 3.48857 4.36285 2.36316 5.87877 1.83101C6.82172 1.5 8.00236 1.5 10.3636 1.5C11.7129 1.5 12.3876 1.5 12.9264 1.68915C13.7927 1.99324 14.4759 2.63632 14.799 3.45161C15 3.95874 15 4.59371 15 5.86364V7.5" stroke="#004FB8" stroke-linecap="round" stroke-linejoin="round"/>
  <path d="M2.25 9C2.25 7.61929 3.36929 6.5 4.75 6.5C5.24934 6.5 5.83803 6.58749 6.32352 6.45741C6.75489 6.34182 7.09182 6.00489 7.20741 5.57352C7.3375 5.08803 7.25 4.49934 7.25 4C7.25 2.61929 8.36929 1.5 9.75 1.5" stroke="#004FB8" stroke-linecap="round" stroke-linejoin="round"/>
  <path d="M8.85427 13.5C8.85427 13.7761 9.07813 14 9.35427 14C9.63041 14 9.85427 13.7761 9.85427 13.5H9.35427H8.85427ZM7.95999 9.75055C7.95999 9.47441 7.73613 9.25055 7.45999 9.25055C7.18385 9.25055 6.95999 9.47441 6.95999 9.75055H7.45999H7.95999ZM5.75 12.2883C5.75 12.0121 5.52614 11.7883 5.25 11.7883C4.97386 11.7883 4.75 12.0121 4.75 12.2883H5.25H5.75ZM15.2361 10.4265C15.2643 10.7012 15.5098 10.901 15.7845 10.8728C16.0592 10.8447 16.259 10.5991 16.2309 10.3244L15.7335 10.3755L15.2361 10.4265ZM14.7078 11.4419C14.4339 11.4776 14.2408 11.7284 14.2765 12.0023C14.3121 12.2761 14.563 12.4692 14.8368 12.4335L14.7723 11.9377L14.7078 11.4419ZM10.112 9.75055V10.2505H10.6171V9.75055V9.25055H10.112V9.75055ZM9.35427 13.5H9.85427V11.6253H9.35427H8.85427V13.5H9.35427ZM9.35427 11.6253H9.85427V10.5004H9.35427H8.85427V11.6253H9.35427ZM10.6171 11.6253V11.1253H9.35427V11.6253V12.1253H10.6171V11.6253ZM11.5643 10.6879H11.0643C11.0643 10.9246 10.869 11.1253 10.6171 11.1253V11.6253V12.1253C11.4114 12.1253 12.0643 11.4866 12.0643 10.6879H11.5643ZM10.6171 9.75055V10.2505C10.869 10.2505 11.0643 10.4512 11.0643 10.6879H11.5643H12.0643C12.0643 9.8892 11.4114 9.25055 10.6171 9.25055V9.75055ZM10.112 9.75055V9.25055C9.94738 9.25055 9.77414 9.24951 9.63032 9.26864C9.47265 9.28962 9.27758 9.34261 9.11352 9.50498L9.46523 9.86037L9.81695 10.2157C9.76385 10.2683 9.71356 10.2664 9.76222 10.2599C9.78798 10.2565 9.82689 10.2536 9.88832 10.2521C9.9495 10.2506 10.0208 10.2505 10.112 10.2505V9.75055ZM9.35427 10.5004H9.85427C9.85427 10.4102 9.8543 10.3398 9.85584 10.2795C9.85738 10.2189 9.86023 10.181 9.86359 10.1563C9.8698 10.1106 9.87076 10.1625 9.81695 10.2157L9.46523 9.86037L9.11352 9.50498C8.94874 9.66806 8.89422 9.86322 8.87269 10.0217C8.85318 10.1653 8.85427 10.338 8.85427 10.5004H9.35427ZM7.45999 9.75055H6.95999V12.2883H7.45999H7.95999V9.75055H7.45999ZM7.45999 12.2883H6.95999C6.95999 12.5993 6.86193 12.7689 6.76808 12.8591C6.66939 12.9541 6.52982 13.0054 6.3735 12.9996C6.06602 12.9882 5.75 12.7626 5.75 12.2883H5.25H4.75C4.75 13.3467 5.53897 13.9693 6.33649 13.9989C6.73267 14.0136 7.1456 13.8835 7.46128 13.5799C7.78181 13.2716 7.95999 12.8255 7.95999 12.2883H7.45999ZM13.1428 12.2502H13.6428V11.0004H13.1428H12.6428V12.2502H13.1428ZM14.4464 13.5V13C14.1256 13 13.9332 12.999 13.7951 12.9812C13.6694 12.965 13.6661 12.943 13.6798 12.956L13.3337 13.317L12.9877 13.6779C13.1922 13.874 13.4381 13.9435 13.6673 13.973C13.8842 14.001 14.1527 14 14.4464 14V13.5ZM13.1428 12.2502H12.6428C12.6428 12.53 12.6417 12.7924 12.6715 13.0053C12.7037 13.2349 12.7802 13.479 12.9877 13.6779L13.3337 13.317L13.6798 12.956C13.6963 12.9719 13.6774 12.9772 13.6618 12.8664C13.644 12.739 13.6428 12.5595 13.6428 12.2502H13.1428ZM15.75 12.2502H15.25C15.25 12.5595 15.2488 12.739 15.231 12.8664C15.2154 12.9772 15.1965 12.9719 15.2131 12.956L15.5591 13.317L15.9051 13.6779C16.1126 13.479 16.1891 13.2349 16.2213 13.0053C16.2512 12.7924 16.25 12.53 16.25 12.2502H15.75ZM14.4464 13.5V14C14.7401 14 15.0086 14.001 15.2255 13.973C15.4547 13.9435 15.7006 13.874 15.9051 13.6779L15.5591 13.317L15.2131 12.956C15.2267 12.943 15.2235 12.965 15.0977 12.9812C14.9596 12.999 14.7672 13 14.4464 13V13.5ZM14.4464 9.75055V9.25055C14.1527 9.25055 13.8842 9.24957 13.6673 9.27753C13.4381 9.30707 13.1922 9.37657 12.9877 9.57266L13.3337 9.93358L13.6798 10.2945C13.6661 10.3076 13.6694 10.2855 13.7951 10.2693C13.9332 10.2515 14.1256 10.2505 14.4464 10.2505V9.75055ZM13.1428 11.0004H13.6428C13.6428 10.6911 13.644 10.5115 13.6618 10.3841C13.6774 10.2733 13.6963 10.2786 13.6798 10.2945L13.3337 9.93358L12.9877 9.57266C12.7802 9.77159 12.7037 10.0157 12.6715 10.2452C12.6417 10.4582 12.6428 10.7205 12.6428 11.0004H13.1428ZM15.75 12.2502H16.25C16.25 11.9064 16.0387 11.6869 15.8363 11.5767C15.6562 11.4786 15.4542 11.4451 15.3083 11.4313C15.1523 11.4165 15.0032 11.4196 14.8975 11.4255C14.8435 11.4285 14.7982 11.4323 14.7655 11.4355C14.7492 11.4371 14.7358 11.4386 14.7261 11.4397C14.7212 11.4403 14.7172 11.4407 14.7141 11.4411C14.7126 11.4413 14.7113 11.4415 14.7102 11.4416C14.7097 11.4417 14.7092 11.4417 14.7088 11.4418C14.7086 11.4418 14.7084 11.4418 14.7082 11.4418C14.7082 11.4419 14.708 11.4419 14.708 11.4419C14.7079 11.4419 14.7078 11.4419 14.7723 11.9377C14.8368 12.4335 14.8367 12.4336 14.8366 12.4336C14.8366 12.4336 14.8365 12.4336 14.8365 12.4336C14.8363 12.4336 14.8362 12.4336 14.8362 12.4336C14.836 12.4337 14.8359 12.4337 14.8358 12.4337C14.8357 12.4337 14.8358 12.4337 14.8361 12.4336C14.8367 12.4336 14.8382 12.4334 14.8405 12.4331C14.8451 12.4326 14.8527 12.4317 14.8631 12.4307C14.8839 12.4287 14.915 12.426 14.9526 12.424C15.0303 12.4197 15.1256 12.4185 15.214 12.4268C15.2577 12.431 15.2939 12.4369 15.3218 12.4438C15.351 12.4509 15.361 12.4565 15.3581 12.455C15.355 12.4533 15.3259 12.4369 15.2969 12.3952C15.2643 12.348 15.25 12.2943 15.25 12.2502H15.75ZM14.4464 9.75055V10.2505C14.6032 10.2505 14.7312 10.248 14.8586 10.2538C14.9839 10.2595 15.073 10.2723 15.136 10.2913C15.1951 10.3092 15.2084 10.3256 15.2086 10.3259C15.2095 10.3268 15.2133 10.3311 15.2183 10.3436C15.2236 10.3569 15.2316 10.3827 15.2361 10.4265L15.7335 10.3755L16.2309 10.3244C16.2053 10.0751 16.1203 9.84877 15.9605 9.6665C15.8031 9.48704 15.6069 9.38892 15.425 9.33399C15.0941 9.23413 14.692 9.25055 14.4464 9.25055V9.75055Z" fill="#004FB8"/>
</svg>
