<svg width="34" height="34" viewBox="0 0 34 34" fill="none" xmlns="http://www.w3.org/2000/svg">
  <path d="M28.7 11.8V9.20005C28.7 8.1657 28.2891 7.17372 27.5577 6.44233C26.8263 5.71094 25.8343 5.30005 24.8 5.30005H20.9M20.9 28.7001H24.8C25.8343 28.7001 26.8263 28.2892 27.5577 27.5578C28.2891 26.8264 28.7 25.8344 28.7 24.8V22.2M5.3 22.2V24.8C5.3 25.8344 5.71089 26.8264 6.44228 27.5578C7.17368 28.2892 8.16566 28.7001 9.2 28.7001H13.1M13.1 5.30005H9.2C8.16566 5.30005 7.17368 5.71094 6.44228 6.44233C5.71089 7.17372 5.3 8.1657 5.3 9.20005V11.8M4 17H30" stroke="white" stroke-width="1.5" stroke-linecap="round" stroke-linejoin="round"/>
</svg>
