<svg width="17" height="36" viewBox="0 0 17 36" fill="none" xmlns="http://www.w3.org/2000/svg">
  <path d="M6.9707 23.2402C6.9707 22.8496 7.10417 22.5208 7.37109 22.2539C7.63802 21.987 7.99935 21.8535 8.45508 21.8535C8.91081 21.8535 9.27214 21.987 9.53906 22.2539C9.80599 22.5208 9.93945 22.8496 9.93945 23.2402C9.93945 23.6243 9.80599 23.9499 9.53906 24.2168C9.27214 24.4772 8.91081 24.6074 8.45508 24.6074C7.99935 24.6074 7.63802 24.4772 7.37109 24.2168C7.10417 23.9499 6.9707 23.6243 6.9707 23.2402ZM6.98047 15.0469C6.98047 14.6562 7.11393 14.3275 7.38086 14.0605C7.64779 13.7936 8.00911 13.6602 8.46484 13.6602C8.92057 13.6602 9.2819 13.7936 9.54883 14.0605C9.81576 14.3275 9.94922 14.6562 9.94922 15.0469C9.94922 15.431 9.81576 15.7565 9.54883 16.0234C9.2819 16.2839 8.92057 16.4141 8.46484 16.4141C8.00911 16.4141 7.64779 16.2839 7.38086 16.0234C7.11393 15.7565 6.98047 15.431 6.98047 15.0469Z" fill="#7C7C7C"/>
</svg>
