<svg width="44" height="44" viewBox="0 0 44 44" fill="none" xmlns="http://www.w3.org/2000/svg">
  <rect width="44" height="44" rx="22" fill="#E3EDFF"/>
  <path d="M26.8652 23.3893L27.5321 24.7341C27.623 24.9213 27.8655 25.1008 28.0702 25.1352L29.2789 25.3377C30.0518 25.4676 30.2337 26.033 29.6767 26.5908L28.737 27.5382C28.5779 27.6987 28.4907 28.0081 28.54 28.2297L28.809 29.4026C29.0212 30.3309 28.5324 30.69 27.7178 30.2048L26.5848 29.5286C26.3802 29.4064 26.043 29.4064 25.8346 29.5286L24.7017 30.2048C23.8908 30.69 23.3983 30.3271 23.6104 29.4026L23.8795 28.2297C23.9287 28.0081 23.8416 27.6987 23.6824 27.5382L22.7427 26.5908C22.1895 26.033 22.3676 25.4676 23.1406 25.3377L24.3493 25.1352C24.5501 25.1008 24.7926 24.9213 24.8836 24.7341L25.5504 23.3893C25.9142 22.6596 26.5053 22.6596 26.8652 23.3893Z" stroke="#004FB8" stroke-linecap="round" stroke-linejoin="round"/>
  <path d="M27.0527 13.5789V15.2631M16.9474 13.5789V15.2631" stroke="#004FB8" stroke-linecap="round" stroke-linejoin="round"/>
  <path d="M29.9998 21.5788C29.9964 18.3229 29.9383 16.634 28.9456 15.5608C27.8912 14.4209 26.1941 14.4209 22.8 14.4209H21.2C17.8059 14.4209 16.1088 14.4209 15.0544 15.5608C14 16.7007 14 18.5354 14 22.2047V22.6371C14 26.3064 14 28.1411 15.0544 29.281C16.0597 30.3678 17.6493 30.4184 20.7368 30.4208" stroke="#004FB8" stroke-linecap="round" stroke-linejoin="round"/>
  <path d="M14.4211 18.6316H29.579" stroke="#004FB8" stroke-linecap="round" stroke-linejoin="round"/>
</svg>
