<svg width="13" height="13" viewBox="0 0 13 13" fill="none" xmlns="http://www.w3.org/2000/svg">
  <g clip-path="url(#clip0_120_7166)">
    <path d="M7.53685 2.0355C7.90945 1.63181 8.09574 1.42997 8.29371 1.31224C8.77137 1.02815 9.35954 1.01932 9.84518 1.28893C10.0464 1.40067 10.2385 1.59683 10.6225 1.98915C11.0066 2.38147 11.1986 2.57764 11.308 2.78324C11.5719 3.27933 11.5633 3.88017 11.2852 4.36812C11.1699 4.57035 10.9723 4.76066 10.5772 5.14128L5.87531 9.66992C5.12644 10.3912 4.752 10.7519 4.28403 10.9346C3.81606 11.1174 3.3016 11.104 2.27268 11.0771L2.13269 11.0734C1.81945 11.0652 1.66283 11.0611 1.57179 10.9578C1.48075 10.8545 1.49318 10.6949 1.51804 10.3759L1.53154 10.2026C1.6015 9.30455 1.63649 8.85552 1.81185 8.45188C1.98722 8.04825 2.28972 7.72051 2.89471 7.06502L7.53685 2.0355Z" stroke="#004FB8" stroke-linejoin="round"/>
    <path d="M7 2.09277L10.5 5.59277" stroke="#004FB8" stroke-linejoin="round"/>
    <path d="M7.5 11.0928L11.5 11.0928" stroke="#004FB8" stroke-linecap="round" stroke-linejoin="round"/>
  </g>
  <defs>
    <clipPath id="clip0_120_7166">
      <rect width="12" height="12" fill="white" transform="translate(0.5 0.0927734)"/>
    </clipPath>
  </defs>
</svg>
