<svg width="129" height="153" viewBox="0 0 129 153" fill="none" xmlns="http://www.w3.org/2000/svg">
  <ellipse cx="64.5" cy="67.1782" rx="64" ry="64" fill="#F4F4F4" fill-opacity="0.6"/>
  <ellipse cx="64.5" cy="67.1783" rx="44.0284" ry="44.0284" fill="#EEEEEE"/>
  <g filter="url(#filter0_f_120_7139)">
    <ellipse cx="65.7112" cy="131.722" rx="35.4944" ry="6.37078" fill="#D3D3D3" fill-opacity="0.7"/>
  </g>
  <path d="M74.4232 54.5695H52.7805C51.0005 54.5695 50.5555 56.3225 50.5555 57.1989V74.3918C50.5555 77.7899 53.5221 78.9091 55.0055 78.8417H73.2096C74.8278 78.8417 76.8505 77.2235 76.8505 74.3918V57.1989C76.8505 54.9335 75.2323 54.502 74.4232 54.5695Z" stroke="#4E4E4E" stroke-width="2" stroke-linecap="round"/>
  <path d="M54.8031 54.5695V50.5241C54.8031 47.4226 56.5831 41.2197 63.7029 41.2197C70.8228 41.2197 72.6702 47.4226 72.6027 50.5241V54.5695" stroke="#4E4E4E" stroke-width="2" stroke-linecap="round"/>
  <path d="M65.8668 72.1666H61.6872C60.9946 72.1666 60.5117 71.4795 60.7463 70.8279L61.7225 68.1163C61.9185 67.5717 61.5933 66.9604 61.1924 66.5429C60.3159 65.63 59.9026 63.9054 60.6689 62.66C61.9634 60.5563 64.3098 60.9744 65.3211 61.4464C65.9279 61.716 67.1415 62.66 67.1415 64.2781C67.1415 65.3437 66.5567 66.117 66.0226 66.5978C65.6518 66.9316 65.459 67.4546 65.6443 67.9178L66.7952 70.7952C67.058 71.4521 66.5742 72.1666 65.8668 72.1666Z" stroke="#4E4E4E" stroke-width="2" stroke-linecap="round"/>
  <path d="M90.8075 85.3145H36.3973C32.7559 85.3145 31.7451 88.1462 31.7451 89.1576V100.282C31.7451 103.114 32.9587 104.935 36.3973 104.935H90.8075C94.6911 104.935 95.5271 101.833 95.4597 100.282V89.1576C95.4597 86.9326 94.0438 85.3145 90.8075 85.3145Z" stroke="#4E4E4E" stroke-width="2" stroke-linecap="round"/>
  <path d="M39.7247 92.9216L47.8017 97.4904M47.8017 92.9216L39.7247 97.4904M43.7218 90.6372V99.6116" stroke="#4E4E4E" stroke-width="2" stroke-linecap="round"/>
  <path d="M53.1866 92.9216L61.2636 97.4904M61.2636 92.9216L53.1866 97.4904M57.1837 90.6372V99.6116" stroke="#4E4E4E" stroke-width="2" stroke-linecap="round"/>
  <path d="M66.6479 92.9216L74.7249 97.4904M74.7249 92.9216L66.6479 97.4904M70.645 90.6372V99.6116" stroke="#4E4E4E" stroke-width="2" stroke-linecap="round"/>
  <path d="M80.1096 92.9216L88.1866 97.4904M88.1866 92.9216L80.1096 97.4904M84.1067 90.6372V99.6116" stroke="#4E4E4E" stroke-width="2" stroke-linecap="round"/>
  <path d="M6.8656 63.1382C10.099 63.1382 12.72 65.7593 12.7201 68.9927C12.7201 72.2261 10.099 74.8472 6.8656 74.8472C3.63224 74.8471 1.01111 72.226 1.01111 68.9927C1.01117 65.7594 3.63228 63.1382 6.8656 63.1382Z" stroke="#7C7C7C"/>
  <path d="M22.7521 34.9966C23.7293 34.9966 24.5216 35.7889 24.5216 36.7661C24.5216 37.7434 23.7293 38.5356 22.7521 38.5356C21.7748 38.5356 20.9826 37.7434 20.9825 36.7661C20.9825 35.7888 21.7748 34.9966 22.7521 34.9966Z" stroke="#7C7C7C"/>
  <path d="M50.4402 1.40771C52.6708 1.40774 54.4792 3.21611 54.4792 5.44678C54.4792 7.67741 52.6708 9.48581 50.4402 9.48584C48.2095 9.48584 46.4012 7.67743 46.4011 5.44678C46.4011 3.2161 48.2095 1.40771 50.4402 1.40771Z" stroke="#7C7C7C"/>
  <path d="M123.064 44.9824C125.295 44.9825 127.104 46.7908 127.104 49.0215C127.103 51.2521 125.295 53.0605 123.064 53.0605C120.834 53.0605 119.025 51.2521 119.025 49.0215C119.025 46.7908 120.834 44.9824 123.064 44.9824Z" stroke="#7C7C7C"/>
  <path d="M5.05017 8.67041C7.28083 8.67044 9.08923 10.4788 9.08923 12.7095C9.0892 14.9401 7.28081 16.7485 5.05017 16.7485C2.81951 16.7485 1.01114 14.9401 1.01111 12.7095C1.01111 10.4788 2.81949 8.67041 5.05017 8.67041Z" stroke="#7C7C7C"/>
  <path d="M83.575 0.5C84.5522 0.500015 85.3445 1.29227 85.3445 2.26953C85.3445 3.24678 84.5522 4.03905 83.575 4.03906C82.5977 4.03906 81.8054 3.24679 81.8054 2.26953C81.8054 1.29226 82.5977 0.5 83.575 0.5Z" stroke="#7C7C7C"/>
  <path d="M101.731 19.564C102.708 19.564 103.501 20.3562 103.501 21.3335C103.501 22.3107 102.708 23.103 101.731 23.103C100.754 23.103 99.9617 22.3108 99.9617 21.3335C99.9617 20.3562 100.754 19.564 101.731 19.564Z" stroke="#7C7C7C"/>
  <defs>
    <filter id="filter0_f_120_7139" x="16.2168" y="111.351" width="98.9888" height="40.7417" filterUnits="userSpaceOnUse" color-interpolation-filters="sRGB">
      <feFlood flood-opacity="0" result="BackgroundImageFix"/>
      <feBlend mode="normal" in="SourceGraphic" in2="BackgroundImageFix" result="shape"/>
      <feGaussianBlur stdDeviation="7" result="effect1_foregroundBlur_120_7139"/>
    </filter>
  </defs>
</svg>
