<svg width="26" height="26" viewBox="0 0 26 26" fill="none" xmlns="http://www.w3.org/2000/svg">
  <path d="M4 12.7236C4 10.9776 4 10.1046 4.35229 9.33699C4.70586 8.56942 5.368 8.00242 6.69357 6.86584L7.97929 5.76399C10.3771 3.7107 11.5729 2.68213 13 2.68213C14.4271 2.68213 15.6241 3.70942 18.0207 5.7627L19.3064 6.86456C20.6307 8.00113 21.2941 8.56813 21.6464 9.3357C22 10.1033 22 10.9763 22 12.7223V18.175C22 20.5998 22 21.811 21.2466 22.5644C20.4931 23.3178 19.282 23.3178 16.8571 23.3178H9.14286C6.718 23.3178 5.50686 23.3178 4.75343 22.5644C4 21.811 4 20.5998 4 18.175V12.7236Z" stroke="#4E4E4E"/>
  <path d="M16.2145 23.3178V16.8892C16.2145 16.5482 16.079 16.2212 15.8379 15.9801C15.5968 15.739 15.2697 15.6035 14.9287 15.6035H11.0716C10.7306 15.6035 10.4036 15.739 10.1625 15.9801C9.92135 16.2212 9.78589 16.5482 9.78589 16.8892V23.3178" stroke="#4E4E4E" stroke-linecap="round" stroke-linejoin="round"/>
</svg>
